<?xml version="1.0" standalone="no"?>
<!DOCTYPE svg PUBLIC "-//W3C//DTD SVG 20010904//EN"
 "http://www.w3.org/TR/2001/REC-SVG-20010904/DTD/svg10.dtd">
<svg version="1.0" xmlns="http://www.w3.org/2000/svg"
 width="81.000000pt" height="22.000000pt" viewBox="0 0 81.000000 22.000000"
 preserveAspectRatio="xMidYMid meet">

<g transform="translate(0.000000,22.000000) scale(0.100000,-0.100000)"
fill="#000000" stroke="none">
<path d="M22 113 c1 -78 1 -78 8 -23 4 30 7 48 8 40 1 -8 7 -33 14 -55 11 -38
12 -39 19 -15 4 14 7 34 7 45 0 15 -2 14 -7 -5 -7 -24 -8 -23 -19 15 -7 22
-12 48 -12 58 0 9 -4 17 -10 17 -6 0 -9 -31 -8 -77z"/>
<path d="M86 167 c-8 -31 -7 -39 3 -32 6 3 12 -17 14 -47 3 -47 4 -44 5 19 2
71 -10 104 -22 60z"/>
</g>
</svg>
